<svg width="60" height="60" fill="none" xmlns="http://www.w3.org/2000/svg"><rect width="60" height="60" rx="10" fill="#2389FF" fill-opacity=".1"/><g clip-path="url(#clip0_3079_6)" fill="#2389FF"><path d="M16.323 21.668l-1.133-.695c-.276.45-.533.917-.765 1.385l1.195.59c.21-.433.447-.863.703-1.28zm-2.513 2.076a17.169 17.169 0 00-.823 9.704l1.306-.266a15.846 15.846 0 01.759-8.954l-1.241-.484zm30.118-12.408a.667.667 0 00-.743.137l-1.967 1.967a20.037 20.037 0 00-23.638.866l.83 1.044a18.697 18.697 0 0122.492-.502c.265.192.63.164.862-.066l1.123-1.125-.409 6.951-6.951.41.932-.934a.667.667 0 00-.137-1.048 12.728 12.728 0 00-13.369.42l.741 1.108a11.396 11.396 0 0111.187-.787l-1.536 1.533a.666.666 0 00.51 1.137l9.293-.546a.666.666 0 00.626-.626l.547-9.293a.667.667 0 00-.393-.646zM41.71 46.184l-.783-1.079a18.592 18.592 0 01-21.85.014.666.666 0 00-.862.067l-1.123 1.124.408-6.952 6.953-.409-.933.933a.665.665 0 00.137 1.048 12.734 12.734 0 0013.338-.4l-.741-1.106a11.395 11.395 0 01-11.156.766l1.532-1.533a.666.666 0 00-.51-1.133l-9.293.546a.666.666 0 00-.626.626l-.547 9.294a.667.667 0 001.137.51l1.967-1.968a19.92 19.92 0 0022.947-.342l.004-.006z"/><path d="M14.135 42.166l1.056-.813a18.74 18.74 0 01-.338-22.282.666.666 0 00-.066-.862l-1.124-1.123 6.952.409.408 6.951-.933-.933a.666.666 0 00-1.048.137 12.728 12.728 0 00.419 13.367l1.107-.74a11.392 11.392 0 01-.785-11.185l1.533 1.533a.667.667 0 001.136-.51l-.546-9.293a.667.667 0 00-.626-.627l-9.294-.546a.666.666 0 00-.507 1.14l1.968 1.967a20.086 20.086 0 00.688 23.41zm24.823-6.646l.933.933a.667.667 0 001.048-.137 12.685 12.685 0 00.019-12.663l-1.155.666a11.346 11.346 0 01.394 10.555l-1.533-1.536a.667.667 0 00-1.133.51l.547 9.294c.02.337.288.606.625.626l9.294.547h.039a.666.666 0 00.47-1.138L46.54 41.21a20.088 20.088 0 00-.688-23.412l-1.056.814a18.74 18.74 0 01.338 22.283.666.666 0 00.066.861l1.117 1.125-6.952-.41-.406-6.95zm-8.968-2.205a3.332 3.332 0 100-6.664 3.332 3.332 0 000 6.664zm0-5.33a1.999 1.999 0 110 3.997 1.999 1.999 0 010-3.998z"/><path d="M22.66 27.984a.666.666 0 00-.667.667v2.665c0 .368.298.667.666.667h.977c.118.371.267.733.448 1.078l-.692.692a.666.666 0 000 .942l1.886 1.885c.26.26.682.26.942 0l.692-.69c.345.18.706.33 1.078.446v.977c0 .368.299.667.667.667h2.665a.666.666 0 00.667-.666v-.978a6.628 6.628 0 001.079-.447l.692.691c.26.26.681.26.942 0l1.885-1.885a.666.666 0 000-.942l-.692-.692c.18-.345.33-.707.448-1.078h.977a.666.666 0 00.666-.667v-2.665a.666.666 0 00-.666-.667h-.977a6.607 6.607 0 00-.449-1.079l.693-.692a.666.666 0 000-.942L34.7 23.386a.666.666 0 00-.941 0l-.692.691a6.634 6.634 0 00-1.08-.447v-.977a.666.666 0 00-.666-.666h-2.665a.666.666 0 00-.667.666v.977a6.64 6.64 0 00-1.078.448l-.692-.692a.666.666 0 00-.942 0l-1.886 1.885a.666.666 0 000 .942l.692.692a6.63 6.63 0 00-.448 1.08h-.977zm1.485 1.333a.667.667 0 00.65-.519 5.274 5.274 0 01.685-1.647.666.666 0 00-.093-.828l-.58-.58.942-.943.58.581c.221.22.564.26.828.093a5.264 5.264 0 011.648-.684.667.667 0 00.518-.65v-.82h1.333v.82c0 .31.215.58.518.65a5.267 5.267 0 011.648.684.667.667 0 00.828-.093l.58-.581.943.942-.581.581a.666.666 0 00-.093.827c.32.506.551 1.064.684 1.648a.667.667 0 00.65.519h.82v1.333h-.82a.666.666 0 00-.65.519 5.287 5.287 0 01-.684 1.648.666.666 0 00.093.826l.58.581-.942.942-.58-.58a.667.667 0 00-.828-.093 5.28 5.28 0 01-1.648.684.666.666 0 00-.518.65v.82h-1.333v-.82a.666.666 0 00-.518-.65 5.277 5.277 0 01-1.648-.684.667.667 0 00-.827.092l-.581.581-.942-.942.58-.581a.666.666 0 00.093-.827 5.28 5.28 0 01-.684-1.648.667.667 0 00-.65-.518h-.82v-1.333h.82z"/></g><defs><clipPath id="clip0_3079_6"><path fill="#fff" transform="translate(10 10)" d="M0 0h40v40H0z"/></clipPath></defs></svg>