<svg width="80" height="88" fill="none" xmlns="http://www.w3.org/2000/svg"><path d="M116.337 15.875c-1.703-5.817-4.01-9.983-4.108-10.158-.379-.677-1.158-1.03-1.864-.854-.182.045-4.54 1.15-9.568 3.878-6.786 3.68-11.527 8.595-13.711 14.208-1.818 4.675-2.08 10.39-.79 16.704a50.422 50.422 0 00-9.206-8.704c-1.029-2.208-3.75-7.643-8.001-13.324-1.401-1.87-4.095.477-2.68 2.366 2.865 3.829 5.022 7.594 6.37 10.18l-15.727-3.33L42.108 4.699c1.451.022 2.907.174 4.356.483 4.594.977 9.13 3.518 13.488 7.552 1.707 1.581 3.925-1.296 2.24-2.855C57.378 5.423 52.31 2.603 47.127 1.5c-7.91-1.681-17.138.526-26.686 6.387-7.116 4.369-11.875 9.167-12.073 9.369-.637.646-.738 1.82-.205 2.575.698 1.555 3.342 7.165 7.744 13.205 2.595 3.562 5.332 6.61 8.162 9.114a42.272 42.272 0 00-2.344 2.304c-4.046 4.299-7.144 9.37-9.178 14.914-1.797 4.898-2.764 10.168-2.818 15.6-.09 8.88 2.28 17.447 6.852 24.772 4.467 7.156 10.711 12.65 18.058 15.887 2.056.904 3.356-2.569 1.298-3.476a35.705 35.705 0 01-7.468-4.463c.294-1.777.979-8.173-2.932-14.794-.547-.925 1.09-4.563 2.066-6.735 1.009-2.24 2.05-4.554 2.536-6.733.517-2.316-.065-4.26-1.68-5.623-1.185-1.001-2.737-1.52-4.105-1.977-.888-.297-1.895-.633-2.255-.958-.741-.675-1.951-3.167-2.924-5.168-1.079-2.22-2.106-4.334-3.155-5.635 2.36-6.09 6.152-11.478 10.9-15.6 4.337 3.21 9.287 5.424 14.549 5.873-6.102 5.136-8.076 11.695-5.255 17.995 3.295 7.357 10.077 6.182 16.06 5.146a86.91 86.91 0 013.132-.504c.385-.052.501.062.579.136 1.31 1.266 1.27 7.313 1.243 11.728-.038 6.107-.074 11.876 2.02 14.838 1.068 1.51 2.573 2.282 4.336 2.282 1.056 0 2.205-.277 3.409-.838 5.208-2.422 10.621-9.714 9.795-15.483-.721-5.043-1.199-8.376-.073-11.062 1.04-2.485 3.557-4.787 8.513-7.724.594 2.903.893 5.924.862 9.022-.106 10.577-3.998 20.476-10.958 27.873-7.779 8.267-18.711 12.349-29.526 11.054-2.203-.259-2.584 3.465-.378 3.729 11.838 1.417 23.807-3.054 32.318-12.101 7.621-8.098 11.881-18.935 11.997-30.515.154-15.354-7.098-28.956-18.138-36.792a68.533 68.533 0 004.923-4.182c4.025 3.137 7.595 7.002 10.566 11.504 7.13 10.81 9.958 23.988 7.964 37.11-4.118 27.085-27.753 45.484-52.69 41.008-12.08-2.167-22.659-9.313-29.79-20.123-7.13-10.81-9.959-23.99-7.964-37.11.358-2.36-3.047-2.98-3.406-.611-2.146 14.11.896 28.282 8.563 39.906 7.668 11.624 19.045 19.309 32.034 21.64a46.08 46.08 0 008.136.727c10.208 0 20.139-3.443 28.601-10.03 10.703-8.33 17.778-20.687 19.922-34.796 1.572-10.34.356-20.712-3.422-30.092a47.403 47.403 0 007.961-3.406c6.785-3.681 11.527-8.595 13.71-14.208 2.186-5.615 2.125-12.733-.176-20.584zM16.121 67.45c1.285 2.646 2.5 5.147 3.762 6.294.894.812 2.139 1.228 3.456 1.668 3.375 1.127 3.767 1.68 3.443 3.13-.397 1.782-1.355 3.911-2.281 5.969-1.783 3.963-3.467 7.705-1.871 10.41 2.264 3.832 2.652 7.605 2.613 9.951C14.958 94.798 10.77 78.886 14.6 64.424c.508.946 1.042 2.044 1.52 3.026zm83.54-36.86l-4.907-12.918c2.387-2.426 5.158-4.252 7.517-5.537a44.19 44.19 0 015.456-2.495l-8.066 20.95zm11.25-19.496c.685 1.6 1.48 3.664 2.159 5.997.745 2.56 1.428 5.733 1.564 9.043l-11.499 5.154 7.776-20.194zM90.266 24.41a18.303 18.303 0 011.928-3.641l5.586 14.703-5.013 13.021a52.422 52.422 0 01-2.237-6.176c-1.412-4.85-2.603-11.894-.264-17.907zm11.062 22.863a43.95 43.95 0 01-5.284 2.43l5.202-13.51 13.242-5.935c-.192 1.61-.559 3.208-1.155 4.74-2.339 6.014-7.819 9.995-12.005 12.275zm-62.261-1.068a21.76 21.76 0 01-1.806-.469l19.11-15.217 15.735 3.332c-5.732 4.906-19.681 15.197-33.04 12.354zM21.602 34.47c-4.087-4.785-7.083-9.902-8.803-13.178l20.025 4.241-11.222 8.937zm3.536-25.026l8.378 12.414-20.153-4.268c2.537-2.176 6.725-5.444 11.775-8.146zm13.374 13.472L28.355 7.866c3.04-1.358 6.305-2.426 9.65-2.901l14.052 20.819-13.545-2.868zm-1.075 3.594l14.321 3.032-18.38 14.635c-3.466-1.739-6.585-4.238-9.314-7.017l13.373-10.65zM84.29 63.14c-6.225 3.602-9.273 6.432-10.719 9.884-1.553 3.707-.984 7.685-.196 13.191.465 3.248-3.087 9.294-7.742 11.46-1.722.8-2.948.706-3.647-.283-1.372-1.94-1.334-7.81-1.305-12.526.041-6.526.077-12.161-2.401-14.556-.892-.861-2.032-1.226-3.299-1.057a89.347 89.347 0 00-3.25.522c-6.348 1.099-10.342 1.539-12.411-3.082-3.352-7.484 3.434-13.028 6.507-15.064a11.09 11.09 0 001.746-1.447c7.428-.964 14.446-4.426 20.7-8.762 7.5 4.867 13.256 12.57 16.017 21.72z" fill="#2389FF" fill-opacity=".05"/></svg>