<svg width="60" height="60" fill="none" xmlns="http://www.w3.org/2000/svg"><path d="M26.642 14.95c.437-1.387 1.637-2.45 3.156-2.45 1.518 0 2.719 1.063 3.155 2.45a3.12 3.12 0 011.845-.598c1.921 0 3.333 1.701 3.333 3.611v.572a3.112 3.112 0 011.667-.48c1.921 0 3.333 1.702 3.333 3.612v5a.833.833 0 01-1.666 0v-5c0-1.159-.827-1.945-1.667-1.945-.84 0-1.667.786-1.667 1.945V25a.833.833 0 01-1.666 0v-7.037c0-1.159-.827-1.945-1.667-1.945-.84 0-1.667.786-1.667 1.945v9.26a.833.833 0 01-1.666 0V16.11c0-1.159-.827-1.944-1.667-1.944-.84 0-1.667.786-1.667 1.944v12.963a.833.833 0 01-1.666 0v-11.11c0-1.159-.827-1.945-1.667-1.945-.84 0-1.667.786-1.667 1.945v15.74a.833.833 0 01-1.464.545l-4.69-5.436c-.646-.711-1.649-.709-2.292.006-.691.768-.691 2.045 0 2.813l.038.046 4.08 5.236 2.394 3.256a.863.863 0 01.052.08c2.008 3.505 5.458 5.584 9.12 5.584h.262a.833.833 0 010 1.667h-.262c-4.3 0-8.263-2.432-10.542-6.38l-2.36-3.21-4.042-5.187c-1.24-1.403-1.233-3.626.021-5.02 1.308-1.453 3.467-1.453 4.775 0l.011.013 3.233 3.746V17.963c0-1.91 1.411-3.611 3.333-3.611a3.12 3.12 0 011.845.599z" fill="#2389FF"/><path d="M41.849 37.665a.834.834 0 00-1.178-1.179l-2.334 2.332-1.609-1.627a.833.833 0 10-1.185 1.172l2.198 2.223a.833.833 0 001.181.004l2.927-2.925z" fill="#2389FF"/><path fill-rule="evenodd" clip-rule="evenodd" d="M37.727 29.293a2.5 2.5 0 011.213 0l6.262 1.565a.833.833 0 01.631.809v5c0 3.41-1.605 6.62-4.333 8.666l-1.667 1.25a2.5 2.5 0 01-3 0l-1.666-1.25a10.834 10.834 0 01-4.334-8.666v-5c0-.383.26-.716.632-.809l6.262-1.566zm.809 1.617a.835.835 0 00-.405 0L32.5 32.317v4.35A9.167 9.167 0 0036.167 44l1.666 1.25a.833.833 0 001 0L40.5 44a9.167 9.167 0 003.667-7.333v-4.35l-5.632-1.407z" fill="#2389FF"/><rect width="60" height="60" rx="10" fill="#2389FF" fill-opacity=".1"/></svg>