<svg width="60" height="60" fill="none" xmlns="http://www.w3.org/2000/svg"><path d="M49.398 14.662a16.089 16.089 0 00-1.395-3.174.598.598 0 00-.633-.266 16.1 16.1 0 00-3.25 1.211c-2.305 1.15-3.915 2.685-4.657 4.439-.617 1.46-.706 3.246-.268 5.218a16.623 16.623 0 00-3.127-2.719 24.2 24.2 0 00-2.717-4.162c-.476-.585-1.391.149-.91.739a23.461 23.461 0 012.163 3.18l-5.341-1.04-5.076-6.918a8.34 8.34 0 011.48.151c1.56.306 3.1 1.1 4.58 2.36.58.494 1.334-.405.761-.892-1.634-1.393-3.356-2.273-5.116-2.618-2.687-.525-5.82.164-9.064 1.995-2.417 1.365-4.033 2.864-4.1 2.927a.62.62 0 00-.07.805 23.909 23.909 0 002.63 4.125c.882 1.113 1.811 2.065 2.773 2.847-.274.23-.54.468-.797.72a13.503 13.503 0 00-3.117 4.66 13.52 13.52 0 00-.957 4.873 13.46 13.46 0 002.327 7.739 13.537 13.537 0 006.133 4.963c.699.282 1.14-.803.441-1.086a12.382 12.382 0 01-2.536-1.394c.1-.556.332-2.553-.996-4.622-.186-.29.37-1.425.702-2.104.342-.7.696-1.423.861-2.104.175-.723-.022-1.33-.57-1.756-.403-.313-.93-.475-1.395-.618-.302-.092-.644-.197-.766-.3-.251-.21-.662-.989-.993-1.614-.366-.693-.715-1.354-1.071-1.76a12.461 12.461 0 013.702-4.873c1.473 1.002 3.154 1.694 4.941 1.834-2.072 1.605-2.743 3.654-1.785 5.622 1.12 2.298 3.423 1.931 5.455 1.608a33.32 33.32 0 011.064-.158c.13-.016.17.02.196.043.445.395.432 2.284.422 3.663-.012 1.908-.025 3.71.687 4.636.362.472.873.713 1.472.713.36 0 .749-.087 1.158-.262 1.769-.757 3.607-3.035 3.327-4.837-.245-1.575-.407-2.616-.025-3.456.354-.776 1.208-1.495 2.892-2.413.201.907.303 1.851.292 2.819a12.284 12.284 0 01-3.721 8.708 12.459 12.459 0 01-10.029 3.453c-.748-.081-.878 1.082-.128 1.165 4.02.442 8.086-.954 10.977-3.78a13.447 13.447 0 004.074-9.533c.052-4.797-2.41-9.047-6.16-11.495a22.877 22.877 0 001.672-1.306 15.6 15.6 0 013.588 3.594 15.442 15.442 0 012.705 11.593c-1.399 8.462-9.426 14.21-17.896 12.811A15.466 15.466 0 0114.09 42.33a15.44 15.44 0 01-2.705-11.594c.121-.737-1.035-.93-1.157-.19a16.606 16.606 0 002.908 12.466 16.635 16.635 0 0010.88 6.76c.923.153 1.846.228 2.764.228a16.63 16.63 0 009.714-3.133 16.613 16.613 0 006.766-10.871c.534-3.23.12-6.47-1.163-9.4.593-.175 1.6-.514 2.705-1.065 2.304-1.15 3.915-2.685 4.656-4.439.742-1.754.722-3.977-.06-6.43zM15.361 30.774c.436.827.849 1.608 1.278 1.966.303.254.726.384 1.174.521 1.146.352 1.279.525 1.169.978-.135.557-.46 1.222-.775 1.865-.606 1.238-1.178 2.407-.635 3.252a5.57 5.57 0 01.887 3.11c-3.493-3.148-4.915-8.12-3.614-12.637.172.295.354.639.516.945zM43.734 19.26l-1.666-4.036c.81-.758 1.752-1.328 2.553-1.73a15.66 15.66 0 011.853-.78l-2.74 6.546zm3.821-6.09c.233.5.503 1.144.734 1.873.253.8.485 1.79.531 2.825l-3.906 1.61 2.641-6.309zm-7.011 4.16c.173-.41.396-.788.654-1.138l1.898 4.593-1.703 4.068c-.24-.507-.52-1.173-.76-1.93-.48-1.515-.884-3.715-.09-5.594zm3.756 7.14c-.657.33-1.284.579-1.795.759l1.767-4.22 4.497-1.855a5.647 5.647 0 01-.392 1.481c-.794 1.879-2.656 3.123-4.077 3.835zm-21.147-.334a7.908 7.908 0 01-.613-.146l6.49-4.754 5.345 1.04c-1.947 1.533-6.685 4.748-11.222 3.86zm-5.932-3.666c-1.388-1.495-2.405-3.093-2.99-4.117l6.802 1.325-3.812 2.792zm1.202-7.818l2.845 3.878-6.845-1.333c.862-.68 2.284-1.7 4-2.545zm4.542 4.209l-3.45-4.702c1.033-.424 2.141-.758 3.278-.907l4.772 6.504-4.6-.895zm-.365 1.122l4.864.948-6.243 4.572c-1.177-.544-2.236-1.325-3.164-2.193l4.543-3.327zm15.913 11.443c-2.114 1.126-3.15 2.01-3.64 3.088-.528 1.158-.335 2.401-.068 4.121.159 1.015-1.048 2.903-2.629 3.58-.585.25-1.001.22-1.238-.088-.466-.606-.454-2.44-.444-3.913.014-2.039.026-3.8-.815-4.548-.303-.269-.69-.383-1.12-.33-.37.046-.743.106-1.105.163-2.156.343-3.512.481-4.215-.963-1.138-2.338 1.166-4.07 2.21-4.706.213-.13.41-.282.593-.452 2.523-.3 4.907-1.382 7.031-2.737a12.441 12.441 0 015.44 6.785z" fill="#2389FF"/><rect width="60" height="60" rx="10" fill="#2389FF" fill-opacity=".1"/></svg>