<svg width="35" height="38" fill="none" xmlns="http://www.w3.org/2000/svg"><path d="M13 24.814c-1.105 0-1.99.926-1.99 2.068 0 1.143.885 2.068 1.99 2.068s2-.925 2-2.068c0-1.142-.895-2.068-2-2.068zm1.1-5.169h7.45c.75 0 1.405-.43 1.75-1.065l3.575-6.71a1.03 1.03 0 00.125-.497c0-.574-.45-1.034-1-1.034H11.215l-.95-2.068H7v2.068h2l3.595 7.843-1.35 2.533c-.155.3-.245.636-.245.997 0 1.143.895 2.068 2 2.068h12v-2.068H13.425a.252.252 0 01-.25-.258.25.25 0 01.03-.124l.895-1.685zm8.9 5.169c-1.105 0-1.99.926-1.99 2.068 0 1.143.885 2.068 1.99 2.068s2-.925 2-2.068c0-1.142-.895-2.068-2-2.068z" fill="#2389FF"/><rect width="35" height="37.221" rx="10" fill="#2389FF" fill-opacity=".1"/></svg>