<svg width="20" height="20" viewBox="0 0 20 20" fill="none" xmlns="http://www.w3.org/2000/svg">
<g clip-path="url(#clip0_253_214)">
<path d="M9.01588 14.0871C7.46541 13.9254 6.06744 13.5436 4.87055 12.6074C4.72204 12.491 4.56871 12.3787 4.43319 12.2486C3.90931 11.7455 3.85653 11.1693 4.27106 10.5754C4.62569 10.0673 5.22099 9.93131 5.83975 10.2231C5.95956 10.2797 6.07372 10.3502 6.18306 10.4261C8.41367 11.9587 11.4779 12.001 13.7169 10.495C13.9387 10.3249 14.1759 10.1862 14.4507 10.1154C14.985 9.97823 15.4833 10.1745 15.7701 10.642C16.0977 11.176 16.0935 11.6971 15.6899 12.1116C15.0707 12.7472 14.326 13.2069 13.4987 13.5278C12.7163 13.8311 11.8594 13.9838 11.0113 14.0852C11.1392 14.2245 11.1996 14.293 11.2796 14.3735C12.4312 15.5305 13.5879 16.6828 14.7358 17.8435C15.1268 18.2389 15.2085 18.7293 14.9932 19.1893C14.7578 19.692 14.2307 20.0227 13.714 19.9873C13.3866 19.9647 13.1313 19.8018 12.9044 19.5732C12.0353 18.6987 11.1499 17.8403 10.2984 16.9493C10.0506 16.6901 9.93146 16.7392 9.71277 16.9641C8.83846 17.8642 7.94991 18.7505 7.05612 19.6317C6.65478 20.0274 6.1772 20.0986 5.71177 19.8726C5.21701 19.6327 4.90218 19.1277 4.92648 18.6202C4.94324 18.2768 5.11206 18.0146 5.34771 17.7794C6.48742 16.6413 7.62398 15.5004 8.76096 14.3605C8.83616 14.2846 8.90633 14.2042 9.01588 14.0871Z" fill="#304560"/>
<path d="M9.96043 10.123C7.19443 10.1135 4.92634 7.82051 4.94247 5.05011C4.95839 2.24914 7.22795 -0.00806603 10.0212 -0.000315795C12.8201 0.00722497 15.0666 2.2969 15.0525 5.12699C15.0383 7.89173 12.7545 10.1326 9.96043 10.123ZM12.4742 5.05682C12.4694 3.68125 11.3739 2.58617 10.0011 2.58491C8.61671 2.58344 7.51136 3.69843 7.52204 5.08656C7.5323 6.45688 8.63723 7.54422 10.0138 7.53919C11.3863 7.53438 12.4788 6.43217 12.4742 5.05682Z" fill="#304560"/>
</g>
<defs>
<clipPath id="clip0_253_214">
<rect width="20" height="20" fill="white" transform="translate(0 -0.000244141)"/>
</clipPath>
</defs>
</svg>
