<svg width="20" height="20" viewBox="0 0 20 20" fill="none" xmlns="http://www.w3.org/2000/svg">
<g clip-path="url(#clip0_253_221)">
<path d="M19.8215 14.4726C19.7677 14.3826 19.4352 13.66 17.8351 12.1749C16.16 10.6198 16.385 10.8723 18.4026 8.18337C19.6315 6.54574 20.1228 5.54567 19.969 5.11814C19.8227 4.71061 18.9189 4.81811 18.9189 4.81811L15.9137 4.83562C15.9137 4.83562 15.6912 4.80561 15.5249 4.90437C15.3637 5.00188 15.2599 5.2269 15.2599 5.2269C15.2599 5.2269 14.7836 6.49449 14.1486 7.57207C12.8097 9.84599 12.2734 9.966 12.0547 9.82474C11.5459 9.49596 11.6734 8.50214 11.6734 7.79709C11.6734 5.59317 12.0072 4.67435 11.0221 4.43684C10.6946 4.35808 10.4545 4.30558 9.61824 4.29683C8.54566 4.28558 7.63684 4.30058 7.12305 4.55185C6.78053 4.71936 6.51676 5.09314 6.67802 5.11439C6.87679 5.14064 7.32682 5.23565 7.56559 5.56067C7.87436 5.97945 7.86311 6.92202 7.86311 6.92202C7.86311 6.92202 8.04062 9.51596 7.44933 9.83849C7.04305 10.0598 6.48676 9.60847 5.29292 7.54457C4.68163 6.48824 4.21909 5.3194 4.21909 5.3194C4.21909 5.3194 4.13034 5.10189 3.97158 4.98563C3.77906 4.84437 3.50904 4.79936 3.50904 4.79936L0.651333 4.81686C0.651333 4.81686 0.222551 4.82937 0.0650397 5.01563C-0.0749705 5.18189 0.0537889 5.52442 0.0537889 5.52442C0.0537889 5.52442 2.29145 10.7586 4.82414 13.3975C7.14806 15.8164 9.78575 15.6577 9.78575 15.6577H10.9808C10.9808 15.6577 11.3421 15.6177 11.5259 15.4189C11.6959 15.2364 11.6896 14.8939 11.6896 14.8939C11.6896 14.8939 11.6659 13.29 12.4109 13.0537C13.1447 12.8212 14.0873 14.6038 15.0861 15.2901C15.8412 15.8089 16.415 15.6952 16.415 15.6952L19.0864 15.6577C19.0864 15.6577 20.484 15.5714 19.8215 14.4726Z" fill="#304560"/>
</g>
<defs>
<clipPath id="clip0_253_221">
<rect width="20" height="20" fill="white"/>
</clipPath>
</defs>
</svg>
