<svg width="11" height="7" viewBox="0 0 11 7" fill="none" xmlns="http://www.w3.org/2000/svg">
<path d="M5.39355 2.04545C5.0319 2.04545 4.68505 2.18912 4.42932 2.44485C4.17359 2.70059 4.02992 3.04743 4.02992 3.40909C4.02992 3.77075 4.17359 4.1176 4.42932 4.37333C4.68505 4.62906 5.0319 4.77273 5.39355 4.77273C5.75521 4.77273 6.10206 4.62906 6.35779 4.37333C6.61352 4.1176 6.75719 3.77075 6.75719 3.40909C6.75719 3.04743 6.61352 2.70059 6.35779 2.44485C6.10206 2.18912 5.75521 2.04545 5.39355 2.04545ZM5.39355 5.68182C4.79079 5.68182 4.21271 5.44237 3.78649 5.01615C3.36027 4.58993 3.12083 4.01186 3.12083 3.40909C3.12083 2.80633 3.36027 2.22825 3.78649 1.80203C4.21271 1.37581 4.79079 1.13636 5.39355 1.13636C5.99632 1.13636 6.5744 1.37581 7.00062 1.80203C7.42683 2.22825 7.66628 2.80633 7.66628 3.40909C7.66628 4.01186 7.42683 4.58993 7.00062 5.01615C6.5744 5.44237 5.99632 5.68182 5.39355 5.68182V5.68182ZM5.39355 0C3.12083 0 1.17992 1.41364 0.393555 3.40909C1.17992 5.40455 3.12083 6.81818 5.39355 6.81818C7.66628 6.81818 9.60719 5.40455 10.3936 3.40909C9.60719 1.41364 7.66628 0 5.39355 0Z" fill="#728399"/>
</svg>
