<svg width="40" height="40" viewBox="0 0 40 40" fill="none" xmlns="http://www.w3.org/2000/svg">
<rect y="0.000244141" width="40" height="40" rx="20" fill="#F4F7FE"/>
<path d="M15.67 8H25.33C29.01 8 32 11.0247 32 14.7475V24.5196C32 26.3092 31.2973 28.0254 30.0464 29.2908C28.7955 30.5562 27.099 31.2671 25.33 31.2671H15.67C11.99 31.2671 9 28.2424 9 24.5196V14.7475C9 12.9579 9.70273 11.2417 10.9536 9.97628C12.2045 8.71089 13.901 8 15.67 8ZM15.44 10.3267C14.342 10.3267 13.289 10.768 12.5126 11.5534C11.7362 12.3388 11.3 13.404 11.3 14.5148V24.7523C11.3 27.0674 13.1515 28.9404 15.44 28.9404H25.56C26.658 28.9404 27.711 28.4991 28.4874 27.7137C29.2638 26.9283 29.7 25.8631 29.7 24.7523V14.5148C29.7 12.1997 27.8485 10.3267 25.56 10.3267H15.44ZM26.5375 12.0717C26.9187 12.0717 27.2844 12.2249 27.554 12.4977C27.8236 12.7704 27.975 13.1403 27.975 13.5259C27.975 13.9116 27.8236 14.2815 27.554 14.5542C27.2844 14.8269 26.9187 14.9801 26.5375 14.9801C26.1562 14.9801 25.7906 14.8269 25.521 14.5542C25.2514 14.2815 25.1 13.9116 25.1 13.5259C25.1 13.1403 25.2514 12.7704 25.521 12.4977C25.7906 12.2249 26.1562 12.0717 26.5375 12.0717ZM20.5 13.8168C22.025 13.8168 23.4875 14.4296 24.5659 15.5205C25.6442 16.6113 26.25 18.0908 26.25 19.6335C26.25 21.1762 25.6442 22.6558 24.5659 23.7466C23.4875 24.8375 22.025 25.4503 20.5 25.4503C18.975 25.4503 17.5125 24.8375 16.4341 23.7466C15.3558 22.6558 14.75 21.1762 14.75 19.6335C14.75 18.0908 15.3558 16.6113 16.4341 15.5205C17.5125 14.4296 18.975 13.8168 20.5 13.8168ZM20.5 16.1435C19.585 16.1435 18.7075 16.5112 18.0605 17.1657C17.4135 17.8202 17.05 18.7079 17.05 19.6335C17.05 20.5592 17.4135 21.4469 18.0605 22.1014C18.7075 22.7559 19.585 23.1236 20.5 23.1236C21.415 23.1236 22.2925 22.7559 22.9395 22.1014C23.5865 21.4469 23.95 20.5592 23.95 19.6335C23.95 18.7079 23.5865 17.8202 22.9395 17.1657C22.2925 16.5112 21.415 16.1435 20.5 16.1435Z" fill="#2389FF"/>
</svg>
