<svg width="40" height="40" viewBox="0 0 40 40" fill="none" xmlns="http://www.w3.org/2000/svg">
<rect width="40" height="40" rx="20" fill="#F4F7FE"/>
<g clip-path="url(#clip0_242_6)">
<path d="M19.0154 24.0874C17.4649 23.9257 16.067 23.5438 14.8701 22.6077C14.7216 22.4912 14.5682 22.379 14.4327 22.2489C13.9088 21.7457 13.856 21.1695 14.2706 20.5757C14.6252 20.0675 15.2205 19.9316 15.8393 20.2233C15.9591 20.2799 16.0732 20.3505 16.1826 20.4263C18.4132 21.959 21.4775 22.0013 23.7164 20.4952C23.9383 20.3251 24.1754 20.1865 24.4502 20.1157C24.9845 19.9785 25.4829 20.1747 25.7696 20.6423C26.0972 21.1762 26.093 21.6974 25.6894 22.1119C25.0702 22.7474 24.3256 23.2072 23.4982 23.5281C22.7158 23.8314 21.8589 23.9841 21.0108 24.0855C21.1387 24.2248 21.1991 24.2933 21.2791 24.3737C22.4307 25.5308 23.5874 26.6831 24.7353 27.8437C25.1263 28.2392 25.208 28.7295 24.9927 29.1895C24.7573 29.6922 24.2303 30.023 23.7135 29.9876C23.3861 29.965 23.1308 29.802 22.9039 29.5735C22.0348 28.699 21.1494 27.8406 20.298 26.9495C20.0502 26.6904 19.931 26.7394 19.7123 26.9644C18.838 27.8644 17.9494 28.7507 17.0556 29.6319C16.6543 30.0276 16.1767 30.0988 15.7113 29.8728C15.2165 29.633 14.9017 29.1279 14.926 28.6204C14.9427 28.2771 15.1116 28.0148 15.3472 27.7796C16.4869 26.6416 17.6235 25.5006 18.7605 24.3607C18.8357 24.2849 18.9058 24.2044 19.0154 24.0874Z" fill="#2389FF"/>
<path d="M19.9604 20.1232C17.1944 20.1137 14.9263 17.8207 14.9425 15.0503C14.9584 12.2494 17.2279 9.99215 20.0212 9.9999C22.8201 10.0074 25.0666 12.2971 25.0525 15.1272C25.0383 17.8919 22.7545 20.1328 19.9604 20.1232ZM22.4742 15.057C22.4694 13.6815 21.3739 12.5864 20.0011 12.5851C18.6167 12.5837 17.5114 13.6986 17.522 15.0868C17.5323 16.4571 18.6372 17.5444 20.0138 17.5394C21.3863 17.5346 22.4788 16.4324 22.4742 15.057Z" fill="#2389FF"/>
</g>
<defs>
<clipPath id="clip0_242_6">
<rect width="20" height="20" fill="white" transform="translate(10 10)"/>
</clipPath>
</defs>
</svg>
