<svg width="40" height="40" viewBox="0 0 40 40" fill="none" xmlns="http://www.w3.org/2000/svg">
<rect y="0.000244141" width="40" height="40" rx="20" fill="#F4F7FE"/>
<g clip-path="url(#clip0_242_13)">
<path d="M29.8217 24.4728C29.768 24.3828 29.4354 23.6602 27.8353 22.1751C26.1602 20.62 26.3852 20.8725 28.4029 18.1836C29.6317 16.546 30.123 15.5459 29.9692 15.1184C29.823 14.7108 28.9192 14.8183 28.9192 14.8183L25.9139 14.8358C25.9139 14.8358 25.6914 14.8058 25.5252 14.9046C25.3639 15.0021 25.2601 15.2271 25.2601 15.2271C25.2601 15.2271 24.7839 16.4947 24.1488 17.5723C22.81 19.8462 22.2737 19.9662 22.0549 19.825C21.5461 19.4962 21.6736 18.5024 21.6736 17.7973C21.6736 15.5934 22.0074 14.6746 21.0223 14.4371C20.6948 14.3583 20.4548 14.3058 19.6185 14.297C18.5459 14.2858 17.6371 14.3008 17.1233 14.5521C16.7808 14.7196 16.517 15.0933 16.6783 15.1146C16.877 15.1409 17.3271 15.2359 17.5658 15.5609C17.8746 15.9797 17.8634 16.9222 17.8634 16.9222C17.8634 16.9222 18.0409 19.5162 17.4496 19.8387C17.0433 20.06 16.487 19.6087 15.2932 17.5448C14.6819 16.4885 14.2193 15.3196 14.2193 15.3196C14.2193 15.3196 14.1306 15.1021 13.9718 14.9858C13.7793 14.8446 13.5093 14.7996 13.5093 14.7996L10.6516 14.8171C10.6516 14.8171 10.2228 14.8296 10.0653 15.0158C9.92527 15.1821 10.054 15.5246 10.054 15.5246C10.054 15.5246 12.2917 20.7588 14.8244 23.3977C17.1483 25.8166 19.786 25.6579 19.786 25.6579H20.9811C20.9811 25.6579 21.3424 25.6179 21.5261 25.4191C21.6961 25.2366 21.6899 24.8941 21.6899 24.8941C21.6899 24.8941 21.6661 23.2902 22.4112 23.0539C23.145 22.8214 24.0876 24.6041 25.0864 25.2904C25.8414 25.8091 26.4152 25.6954 26.4152 25.6954L29.0867 25.6579C29.0867 25.6579 30.4843 25.5716 29.8217 24.4728Z" fill="#2389FF"/>
</g>
<defs>
<clipPath id="clip0_242_13">
<rect width="20" height="20" fill="white" transform="translate(10 10.0002)"/>
</clipPath>
</defs>
</svg>
