<svg width="17" height="17" viewBox="0 0 17 17" fill="none" xmlns="http://www.w3.org/2000/svg">
<path d="M13.4583 13.25C12.5795 13.25 11.875 13.9546 11.875 14.8333C11.875 15.2533 12.0418 15.656 12.3387 15.9529C12.6356 16.2498 13.0384 16.4167 13.4583 16.4167C13.8782 16.4167 14.2809 16.2498 14.5779 15.9529C14.8748 15.656 15.0416 15.2533 15.0416 14.8333C15.0416 13.9546 14.3291 13.25 13.4583 13.25ZM0.791626 0.583328V2.16666H2.37496L5.22496 8.17541L4.14829 10.115C4.02954 10.3367 3.95829 10.5979 3.95829 10.875C3.95829 11.2949 4.12511 11.6976 4.42204 11.9946C4.71897 12.2915 5.1217 12.4583 5.54163 12.4583H15.0416V10.875H5.87413C5.82164 10.875 5.77129 10.8541 5.73418 10.817C5.69706 10.7799 5.67621 10.7296 5.67621 10.6771C5.67621 10.6375 5.68413 10.6058 5.69996 10.5821L6.41246 9.29166H12.3104C12.9041 9.29166 13.4266 8.95916 13.6958 8.47625L16.53 3.35416C16.5854 3.2275 16.625 3.09291 16.625 2.95833C16.625 2.74837 16.5416 2.547 16.3931 2.39854C16.2446 2.25007 16.0433 2.16666 15.8333 2.16666H4.12454L3.38038 0.583328H0.791626ZM5.54163 13.25C4.66288 13.25 3.95829 13.9546 3.95829 14.8333C3.95829 15.2533 4.12511 15.656 4.42204 15.9529C4.71897 16.2498 5.1217 16.4167 5.54163 16.4167C5.96155 16.4167 6.36428 16.2498 6.66121 15.9529C6.95814 15.656 7.12496 15.2533 7.12496 14.8333C7.12496 13.9546 6.41246 13.25 5.54163 13.25Z" fill="#304560"/>
</svg>
