<svg width="15" height="17" viewBox="0 0 15 17" fill="none" xmlns="http://www.w3.org/2000/svg">
<path d="M5.91667 12.4583V10.0833H0.375V6.91667H5.91667V4.54167L9.875 8.5L5.91667 12.4583ZM5.91667 0.583336H13.0417C13.4616 0.583336 13.8643 0.750151 14.1613 1.04708C14.4582 1.34402 14.625 1.74674 14.625 2.16667V14.8333C14.625 15.2533 14.4582 15.656 14.1613 15.9529C13.8643 16.2499 13.4616 16.4167 13.0417 16.4167H5.91667C5.49674 16.4167 5.09401 16.2499 4.79708 15.9529C4.50015 15.656 4.33333 15.2533 4.33333 14.8333V13.25H5.91667V14.8333H13.0417V2.16667H5.91667V3.75H4.33333V2.16667C4.33333 1.74674 4.50015 1.34402 4.79708 1.04708C5.09401 0.750151 5.49674 0.583336 5.91667 0.583336Z" fill="#304560"/>
</svg>
